# AST/ASF file generated using VICON BodyLanguage
# -----------------------------------------------
:version 1.10
:name VICON
:units
  mass 1.0
  length 0.45
  angle deg
:documentation
   .ast/.asf automatically generated from VICON data using
   VICON BodyBuilder and BodyLanguage model FoxedUp or BRILLIANT.MOD
:root
   order TX TY TZ RX RY RZ
   axis XYZ
   position 0 0 0  
   orientation 0 0 0 
:bonedata
  begin
     id 1 
     name lhipjoint
     direction 0.64773 -0.699417 0.302095 
     length 2.48597 
     axis 0 0 0  XYZ
  end
  begin
     id 2 
     name lfemur
     direction 0.34202 -0.939693 0  
     length 6.71947  
     axis 0 0 20  XYZ
    dof rx ry rz
    limits (-160.0 20.0)
           (-70.0 70.0)
           (-60.0 70.0)
  end
  begin
     id 3 
     name ltibia
     direction 0.34202 -0.939693 0   
     length 8.08777   
     axis 0 0 20   XYZ
    dof rx
    limits (-10.0 170.0)
  end
  begin
     id 4 
     name lfoot
     direction 0.0808503 -0.222134 0.971658   
     length 2.08264   
     axis -90 7.62852e-016 20   XYZ
    dof rx rz
    limits (-45.0 90.0)
           (-70.0 20.0)
  end
  begin
     id 5 
     name ltoes
     direction 1.53502e-011 -4.22007e-011 1   
     length 1.04662   
     axis -90 7.62852e-016 20   XYZ
    dof rx
    limits (-90.0 20.0)
  end
  begin
     id 6 
     name rhipjoint
     direction -0.610924 -0.726792 0.313919   
     length 2.39233  
     axis 0 0 0  XYZ 
  end
  begin
     id 7 
     name rfemur
     direction -0.34202 -0.939693 0   
     length 6.96955   
     axis 0 0 -20   XYZ
    dof rx ry rz
    limits (-160.0 20.0)
           (-70.0 70.0)
           (-70.0 60.0)
  end
  begin
     id 8 
     name rtibia
     direction -0.34202 -0.939693 0   
     length 8.19584   
     axis 0 0 -20   XYZ
    dof rx
    limits (-10.0 170.0)
 end
 begin
     id 9 
     name rfoot
     direction -0.077777 -0.213691 0.9738   
     length 2.07539  
     axis -90 -7.62852e-016 -20   XYZ
    dof rx rz
    limits (-45.0 90.0)
           (-20.0 70.0)
  end
  begin
     id 10 
     name rtoes
     direction -1.53558e-011 -4.22006e-011 1   
     length 1.04381   
     axis -90 -7.62852e-016 -20   XYZ
    dof rx
    limits (-90.0 20.0)
  end
  begin
     id 11 
     name lowerback
     direction -0.00971646 0.996074 0.0879841   
     length 1.67643   
     axis 0 0 0   XYZ
    dof rx ry rz
    limits (-20.0 45.0)
           (-30.0 30.0)
           (-30.0 30.0)
  end
  begin
     id 12 
     name upperback
     direction 0.0127391 0.991676 0.128127   
     length 1.63741   
     axis 0 0 0   XYZ
    dof rx ry rz
    limits (-20.0 45.0)
           (-30.0 30.0)
           (-30.0 30.0)
  end
  begin
     id 13 
     name thorax
     direction 0.0167583 0.996049 0.0872067   
     length 1.65931   
     axis 0 0 0   XYZ
    dof rx ry rz
    limits (-20.0 45.0)
           (-30.0 30.0)
           (-30.0 30.0)
  end
  begin
     id 14 
     name lowerneck
     direction -0.0317829 0.998312 0.0486079   
     length 1.79021   
     axis 0 0 0   XYZ
    dof rx ry rz
    limits (-20.0 45.0)
           (-30.0 30.0)
           (-30.0 30.0)
  end
  begin
     id 15 
     name upperneck
     direction 0.0896851 0.972452 -0.215159   
     length 1.78797   
     axis 0 0 0   XYZ
    dof rx ry rz
    limits (-20.0 45.0)
           (-30.0 30.0)
           (-30.0 30.0)
  end
  begin
     id 16
     name head
     direction 0.0310949 0.996503 -0.0775582  
     length 1.81549  
     axis 0 0 0   XYZ
    dof rx ry rz
    limits (-20.0 45.0)
           (-30.0 30.0)
           (-30.0 30.0)
  end
  begin
     id 17 
     name lclavicle
     direction 0.853638 0.502051 -0.138733  
     length 3.31627  
     axis 0 0 0   XYZ
    dof ry rz
    limits (-20.0 10.0)
           (0.0 20.0)
  end
  begin
     id 18 
     name lhumerus
     direction 1 -4.48962e-011 -1.41788e-018   
     length 5.54893   
     axis 180 -30 -90   XYZ
    dof rx ry rz
    limits (-60.0 90.0)
           (-90.0 90.0)
           (-90.0 90.0)
  end
  begin
     id 19
     name lradius
     direction 1 -4.48962e-011 -4.95754e-027   
     length 3.02898   
     axis 180 -30 -90   XYZ
    dof rx
    limits (-10.0 170.0)
  end
  begin
     id 20
     name lwrist
     direction 1 -4.48952e-011 -1.03764e-026   
     length 1.51449   
     axis 9.09556e-015 90 90   XYZ
    dof ry
    limits (-180.0 0.0)
 end
  begin
     id 21 
     name lhand
     direction 1 -4.4902e-011 -2.07528e-026   
     length 0.640951   
     axis 1.3242e-014 90 90   XYZ
    dof rx rz
    limits (-90.0 90.0)
           (-45.0 45.0)
  end
  begin
     id 22 
     name lfingers
     direction 1 -4.49014e-011 -4.15056e-026   
     length 0.516751   
     axis 2.64841e-014 90 90   XYZ
    dof rx
    limits (0.0 90.0)
  end
  begin
     id 23
     name lthumb
     direction 0.707107 -6.35008e-011 0.707107   
     length 0.741954   
     axis -90 45 2.85299e-015   XYZ
    dof rx rz
    limits (-45.0 45.0)
           (-45.0 45.0)
  end
  begin
     id 24 
     name rclavicle
     direction -0.888531 0.455324 -0.0565039   
     length 3.20126  
     axis 0 0 0   XYZ 
    dof ry rz
    limits (-10.0 20.0)
           (-20.0 0.0)
  end
  begin
     id 25 
     name rhumerus
     direction -1 -4.48946e-011 -8.98298e-028  
     length 5.3519   
     axis 180 30 90   XYZ
    dof rx ry rz
    limits (-90.0 60.0)
           (-90.0 90.0)
           (-90.0 90.0)
  end
  begin
     id 26 
     name rradius
     direction -1 -4.4899e-011 -3.18779e-027   
     length 3.02531   
     axis 180 30 90   XYZ
    dof rx
    limits (-10.0 170.0)
  end
  begin
     id 27 
     name rwrist
     direction -1 -4.4897e-011 -1.03764e-026   
     length 1.51266   
     axis 9.09556e-015 -90 -90   XYZ
    dof ry
    limits (-180.0 0.0)
  end
  begin
     id 28
     name rhand
     direction -1 -4.48941e-011 -2.07528e-026   
     length 0.78389   
     axis 1.3242e-014 -90 -90   XYZ
    dof rx rz
    limits (-90.0 90.0)
           (-45.0 45.0)
  end
  begin
     id 29
     name rfingers
     direction -1 -4.49012e-011 -4.15056e-026   
     length 0.631992   
     axis 2.64841e-014 -90 -90   XYZ
    dof rx
    limits (0.0 90.0)
  end
  begin
     id 30
     name rthumb
     direction -0.707107 -6.3496e-011 0.707107   
     length 0.907418   
     axis -90 -45 -2.85299e-015   XYZ
    dof rx rz
    limits (-45.0 45.0)
           (-45.0 45.0)
  end
:hierarchy
  begin
    root lhipjoint rhipjoint lowerback
    lhipjoint lfemur
    lfemur ltibia
    ltibia lfoot
    lfoot ltoes
    rhipjoint rfemur
    rfemur rtibia
    rtibia rfoot
    rfoot rtoes
    lowerback upperback
    upperback thorax
    thorax lowerneck lclavicle rclavicle
    lowerneck upperneck
    upperneck head
    lclavicle lhumerus
    lhumerus lradius
    lradius lwrist
    lwrist lhand lthumb
    lhand lfingers
    rclavicle rhumerus
    rhumerus rradius
    rradius rwrist
    rwrist rhand rthumb
    rhand rfingers
  end

#!OML:ASF E:\Style3\Style3.ASF
:FULLY-SPECIFIED
:DEGREES
601
root 0.426674 17.8421 0.638335 130.007 90.8975 113.583
lowerback -11.0836 -1.34212 -0.812803
upperback -10.8764 -1.058 1.5526
thorax -5.17746 -0.146387 1.98924
lowerneck -13.0271 -3.07951 -5.79318
upperneck 23.4977 -4.72043 8.41574
head 9.94226 -1.60779 3.37967
rclavicle -2.03754e-015 1.11319e-014
rhumerus -77.8695 72.4373 -139.335
rradius 72.1684
rwrist 32.0582
rhand -33.0942 49.9292
rfingers 7.12502
rthumb -6.30513 20.043
lclavicle -2.03754e-015 1.11319e-014
lhumerus -47.9637 -48.1575 114.379
lradius 47.7549
lwrist -29.6659
lhand -30.8975 0.462971
lfingers 7.12502
lthumb -4.18413 30.4016
rfemur -15.6714 12.3962 18.0066
rtibia 14.6763
rfoot -14.4453 -20.9933
rtoes -14.4807
lfemur 0 0 0
ltibia 0
lfoot 0 0
ltoes 0
602
root 0.427046 17.8423 0.640401 132.89 90.9215 116.476
lowerback -11.0401 -1.3418 -0.873741
upperback -10.8961 -1.05107 1.60151
thorax -5.2214 -0.135903 2.07594
lowerneck -12.9914 -3.06284 -5.79995
upperneck 23.5332 -4.67254 8.31445
head 9.94156 -1.59771 3.35173
rclavicle 5.11871e-015 -3.37934e-015
rhumerus -79.0543 71.8823 -140.869
rradius 70.2582
rwrist 32.3623
rhand -32.9587 50.9389
rfingers 7.12502
rthumb -6.17439 21.0489
lclavicle 5.11871e-015 -3.37934e-015
lhumerus -48.2127 -47.8933 114.829
lradius 46.6126
lwrist -29.9344
lhand -30.9121 0.286788
lfingers 7.12502
lthumb -4.19829 30.2252
rfemur -15.6739 12.4079 18.0091
rtibia 14.6851
rfoot -14.3061 -21.0035
rtoes -14.5083
lfemur 0 0 0
ltibia 0
lfoot 0 0
ltoes 0
603
root 0.423013 17.8431 0.643967 147.045 91.3199 130.481
lowerback -11.0774 -1.21505 -0.854305
upperback -10.9796 -0.871918 1.70155
thorax -5.29962 -0.0380939 2.18176
lowerneck -12.9016 -3.02518 -5.74755
upperneck 23.5755 -4.59901 8.16957
head 9.92824 -1.57582 3.30182
rclavicle -9.83984e-015 4.17448e-015
rhumerus -79.6351 71.2533 -141.835
rradius 68.2859
rwrist 32.8128
rhand -33.0843 51.8836
rfingers 7.12502
rthumb -6.29561 21.9972
lclavicle -9.83984e-015 4.17448e-015
lhumerus -48.5101 -47.5864 115.282
lradius 45.5346
lwrist -30.185
lhand -30.9555 0.357538
lfingers 7.12502
lthumb -4.2402 30.2951
rfemur -15.9296 12.3182 18.092
rtibia 14.6637
rfoot -14.0092 -20.543
rtoes -14.9759
lfemur 0 0 0
ltibia 0
lfoot 0 0
ltoes 0
604
root 0.424478 17.843 0.644945 149.67 91.4077 133.035
lowerback -11.1603 -1.22144 -0.899795
upperback -11.0113 -0.870403 1.76642
thorax -5.28793 -0.0294874 2.27487
lowerneck -12.8512 -2.98461 -5.68687
upperneck 23.6218 -4.52636 8.04032
head 9.92444 -1.55111 3.25583
rclavicle -3.72721e-015 1.51076e-014
rhumerus -79.9199 70.6298 -142.52
rradius 66.3908
rwrist 33.4638
rhand -33.5425 52.4965
rfingers 7.12502
rthumb -6.73789 22.6237
lclavicle -3.72721e-015 1.51076e-014
lhumerus -48.6326 -47.1588 115.567
lradius 44.3622
lwrist -30.6385
lhand -31.0184 0.243364
lfingers 7.12502
lthumb -4.3009 30.1797
rfemur -15.9856 12.4089 18.074
rtibia 14.6066
rfoot -14.0171 -20.539
rtoes -15.2215
lfemur 0 0 0
ltibia 0
lfoot 0 0
ltoes 0
605
root 0.425818 17.8441 0.642747 145.559 91.2947 128.839
lowerback -11.2691 -1.2787 -0.863192
upperback -11.0269 -0.943398 1.79292
thorax -5.24242 -0.0659959 2.27624
lowerneck -12.8248 -2.97384 -5.73521
upperneck 23.6389 -4.49965 8.03515
head 9.92422 -1.54378 3.26625
rclavicle 4.17448e-015 -9.93923e-016
rhumerus -80.1455 70.0763 -143.122
rradius 64.5918
rwrist 34.1038
rhand -34.1005 52.7379
rfingers 7.12502
rthumb -7.27658 22.883
lclavicle 4.17448e-015 -9.93923e-016
lhumerus -48.7086 -46.8524 115.873
lradius 43.0808
lwrist -31.2815
lhand -31.4238 0.29818
lfingers 7.12502
lthumb -4.69241 30.2262
rfemur -16.0077 12.455 18.0467
rtibia 14.5203
rfoot -14.0836 -20.6486
rtoes -15.2075
lfemur 0 0 0
ltibia 0
lfoot 0 0
ltoes 0
606
root 0.425404 17.8448 0.641576 140.436 91.3172 123.645
lowerback -11.3303 -1.26292 -0.729846
upperback -11.0357 -0.927643 1.80859
thorax -5.22133 -0.0650567 2.21825
lowerneck -12.841 -3.00939 -5.78632
upperneck 23.6618 -4.54967 8.08189
head 9.94204 -1.56522 3.28592
rclavicle 9.14409e-015 -1.09332e-014
rhumerus -79.9445 69.435 -143.307
rradius 62.7534
rwrist 34.6459
rhand -34.989 52.3379
rfingers 7.12502
rthumb -8.13414 22.5144
lclavicle 9.14409e-015 -1.09332e-014
lhumerus -48.8964 -46.7566 116.32
lradius 41.8174
lwrist -31.8467
lhand -31.8457 0.393447
lfingers 7.12502
lthumb -5.09978 30.3121
rfemur -16.0624 12.5219 18.1269
rtibia 14.4754
rfoot -14.0794 -20.7526
rtoes -15.1305
lfemur 0 0 0
ltibia 0
lfoot 0 0
ltoes 0
607
root 0.427534 17.8433 0.642553 137.183 91.365 120.404
lowerback -11.3074 -1.27183 -0.677139
upperback -11.0507 -0.939813 1.85765
thorax -5.24999 -0.0715875 2.2398
lowerneck -12.8393 -3.01343 -5.74387
upperneck 23.7213 -4.54626 7.99794
head 9.95966 -1.56783 3.25052
rclavicle 3.47873e-015 3.57812e-015
rhumerus -79.5399 68.7531 -143.233
rradius 60.9999
rwrist 35.1631
rhand -35.5567 51.8179
rfingers 7.12502
rthumb -8.68205 22.0164
lclavicle 3.47873e-015 3.57812e-015
lhumerus -49.1317 -46.5388 116.748
lradius 40.6167
lwrist -32.4389
lhand -32.1249 0.523287
lfingers 7.12502
lthumb -5.36929 30.4353
rfemur -15.9945 12.5697 18.2247
rtibia 14.4087
rfoot -14.1273 -20.7538
rtoes -15.0807
lfemur 0 0 0
ltibia 0
lfoot 0 0
ltoes 0
608
root 0.428035 17.8422 0.641294 134.758 91.291 117.987
lowerback -11.2946 -1.31248 -0.710051
upperback -11.0509 -0.991129 1.8748
thorax -5.25403 -0.0944782 2.27303
lowerneck -12.8646 -3.01705 -5.7706
upperneck 23.8062 -4.54306 7.98282
head 9.99501 -1.56793 3.25212
rclavicle 6.85807e-015 -1.23246e-014
rhumerus -78.8066 68.0753 -142.866
rradius 59.189
rwrist 35.7389
rhand -35.2633 52.376
rfingers 7.12502
rthumb -8.39884 22.563
lclavicle 6.85807e-015 -1.23246e-014
lhumerus -49.1918 -46.2621 117.03
lradius 39.3846
lwrist -33.0486
lhand -32.1781 0.301645
lfingers 7.12502
lthumb -5.42072 30.2123
rfemur -15.9384 12.5657 18.1945
rtibia 14.354
rfoot -14.1519 -20.849
rtoes -14.7982
lfemur 0 0 0
ltibia 0
lfoot 0 0
ltoes 0
609
root 0.430226 17.8422 0.636465 128.563 91.239 111.719
lowerback -11.3987 -1.36422 -0.596704
upperback -11.0572 -1.0646 1.87191
thorax -5.20292 -0.138212 2.20013
lowerneck -12.9106 -3.01471 -5.77511
upperneck 23.8858 -4.55002 8.02509
head 10.0341 -1.56379 3.26899
rclavicle 4.96962e-016 7.95139e-015
rhumerus -78.4649 67.4896 -142.957
rradius 57.4997
rwrist 36.0779
rhand -34.9341 52.8735
rfingers 7.12502
rthumb -8.0812 23.048
lclavicle 4.96962e-016 7.95139e-015
lhumerus -49.2972 -46.0435 117.295
lradius 38.2012
lwrist -33.6424
lhand -32.4697 0.579253
lfingers 7.12502
lthumb -5.70224 30.4825
rfemur -15.9844 12.4114 18.2149
rtibia 14.3266
rfoot -14.1418 -20.815
rtoes -14.5805
lfemur 0 0 0
ltibia 0
lfoot 0 0
ltoes 0
610
root 0.434599 17.8431 0.633948 126.187 91.2224 109.273
lowerback -11.5235 -1.37752 -0.541396
upperback -11.064 -1.08305 1.86105
thorax -5.14282 -0.150583 2.15477
lowerneck -12.9638 -3.02733 -5.78881
upperneck 23.9824 -4.5802 8.08371
head 10.0835 -1.56858 3.29082
rclavicle -1.27719e-014 1.66979e-014
rhumerus -78.1476 66.9049 -143.06
rradius 55.8813
rwrist 36.3681
rhand -34.7969 52.9373
rfingers 7.12502
rthumb -7.94871 23.1067
lclavicle -1.27719e-014 1.66979e-014
lhumerus -49.4026 -45.834 117.581
lradius 37.0288
lwrist -34.2105
lhand -32.6763 1.03573
lfingers 7.12502
lthumb -5.90173 30.9335
rfemur -16.0273 12.3481 18.2095
rtibia 14.3008
rfoot -14.0607 -20.8286
rtoes -14.8759
lfemur 0 0 0
ltibia 0
lfoot 0 0
ltoes 0
611
root 0.436777 17.8425 0.634169 125.165 91.2091 108.218
lowerback -11.5616 -1.39927 -0.536651
upperback -11.084 -1.10933 1.86518
thorax -5.14284 -0.162676 2.15427
lowerneck -12.9534 -3.02607 -5.79296
upperneck 24.0186 -4.57852 8.08346
head 10.0944 -1.56734 3.29269
rclavicle 7.60351e-015 -6.75868e-015
rhumerus -77.4684 66.2681 -142.828
rradius 54.1351
rwrist 36.7084
rhand -34.9836 52.9147
rfingers 7.12502
rthumb -8.12893 23.0911
lclavicle 7.60351e-015 -6.75868e-015
lhumerus -49.2714 -45.273 117.564
lradius 35.8357
lwrist -34.8873
lhand -32.5485 0.846378
lfingers 7.12502
lthumb -5.77829 30.7476
rfemur -16.0065 12.2856 18.2099
rtibia 14.2173
rfoot -14.1121 -20.7248
rtoes -14.8827
lfemur 0 0 0
ltibia 0
lfoot 0 0
ltoes 0
612
root 0.438343 17.8404 0.635967 118.776 91.2862 101.908
lowerback -11.4934 -1.4251 -0.407203
upperback -11.0654 -1.15464 1.89008
thorax -5.15989 -0.194152 2.10549
lowerneck -12.8559 -3.0235 -5.77424
upperneck 23.9294 -4.57465 8.06525
head 10.0422 -1.56977 3.28163
rclavicle 4.96962e-015 -5.56597e-015
rhumerus -76.5113 65.5704 -142.307
rradius 52.3884
rwrist 37.1814
rhand -35.4126 52.5915
rfingers 7.12502
rthumb -8.543 22.7843
lclavicle 4.96962e-015 -5.56597e-015
lhumerus -49.2319 -44.8647 117.631
lradius 34.6922
lwrist -35.2878
lhand -32.5162 0.647119
lfingers 7.12502
lthumb -5.74711 30.5492
rfemur -15.835 12.2587 18.3845
rtibia 14.1119
rfoot -14.1359 -20.7523
rtoes -14.7556
lfemur 0 0 0
ltibia 0
lfoot 0 0
ltoes 0
613
root 0.439608 17.8402 0.639799 113.284 91.3503 96.5007
lowerback -11.4325 -1.44886 -0.366518
upperback -11.0344 -1.19159 1.92545
thorax -5.15792 -0.215644 2.11786
lowerneck -12.8064 -3.04382 -5.7733
upperneck 23.8931 -4.59787 8.04095
head 10.0209 -1.58492 3.26911
rclavicle -5.36719e-015 -3.97569e-016
rhumerus -75.5629 64.8438 -141.747
rradius 50.6719
rwrist 37.6392
rhand -36.1583 52.3506
rfingers 7.12502
rthumb -9.2626 22.5741
lclavicle -5.36719e-015 -3.97569e-016
lhumerus -49.1663 -44.594 117.818
lradius 33.4922
lwrist -35.6891
lhand -32.5145 0.97385
lfingers 7.12502
lthumb -5.74545 30.876
rfemur -15.6657 12.3652 18.5125
rtibia 13.9993
rfoot -14.1063 -20.9433
rtoes -14.71
lfemur 0 0 0
ltibia 0
lfoot 0 0
ltoes 0
614
root 0.443131 17.8402 0.642134 110.387 91.4197 93.6783
lowerback -11.4106 -1.46652 -0.312764
upperback -10.9953 -1.22196 1.9574
thorax -5.12634 -0.235235 2.11909
lowerneck -12.7774 -3.04881 -5.79006
upperneck 23.8722 -4.60429 8.05342
head 10.009 -1.589 3.27527
rclavicle 8.94531e-015 -1.35174e-014
rhumerus -74.8125 64.2408 -141.423
rradius 48.99
rwrist 38.0025
rhand -36.4907 52.5509
rfingers 7.12502
rthumb -9.58327 22.7889
lclavicle 8.94531e-015 -1.35174e-014
lhumerus -48.9558 -44.0779 117.732
lradius 32.3283
lwrist -36.4271
lhand -32.6424 1.17568
lfingers 7.12502
lthumb -5.86897 31.0744
rfemur -15.4987 12.4922 18.6159
rtibia 13.8739
rfoot -14.0147 -21.1516
rtoes -14.6765
lfemur 0 0 0
ltibia 0
lfoot 0 0
ltoes 0
615
root 0.444133 17.8408 0.643157 108.385 91.4472 91.6667
lowerback -11.3916 -1.49764 -0.282985
upperback -11.0116 -1.2634 1.97341
thorax -5.15326 -0.256577 2.11687
lowerneck -12.7289 -3.03173 -5.82329
upperneck 23.8528 -4.58772 8.11415
head 9.99354 -1.57854 3.30472
rclavicle -6.90777e-015 -7.95139e-016
rhumerus -73.9465 63.5908 -140.976
rradius 47.2991
rwrist 38.423
rhand -36.5309 52.7789
rfingers 7.12502
rthumb -9.62203 23.0186
lclavicle -6.90777e-015 -7.95139e-016
lhumerus -48.6093 -43.3271 117.415
lradius 31.1608
lwrist -37.2472
lhand -32.464 0.819825
lfingers 7.12502
lthumb -5.69675 30.7232
rfemur -15.4427 12.5186 18.6565
rtibia 13.768
rfoot -14.0075 -21.1923
rtoes -14.2486
lfemur 0 0 0
ltibia 0
lfoot 0 0
ltoes 0
616
root 0.445528 17.8405 0.644617 106.825 91.4604 90.0909
lowerback -11.3778 -1.51595 -0.27105
upperback -11.0396 -1.28568 1.97328
thorax -5.19085 -0.267088 2.10911
lowerneck -12.7356 -3.04739 -5.82997
upperneck 23.9241 -4.61006 8.11409
head 10.0225 -1.58736 3.30485
rclavicle -2.43511e-015 -1.39149e-014
rhumerus -72.8864 62.8401 -140.293
rradius 45.6378
rwrist 38.775
rhand -36.5216 52.2892
rfingers 7.12502
rthumb -9.61312 22.5285
lclavicle -2.43511e-015 -1.39149e-014
lhumerus -48.2966 -42.5603 117.077
lradius 30.0704
lwrist -38.1288
lhand -32.0876 0.451495
lfingers 7.12502
lthumb -5.33326 30.3644
rfemur -15.4254 12.5597 18.6808
rtibia 13.7166
rfoot -13.9027 -21.284
rtoes -14.5272
lfemur 0 0 0
ltibia 0
lfoot 0 0
ltoes 0
